<svg id="eAwqsB6J0Tb1"
   xmlns="http://www.w3.org/2000/svg"
   xmlns:xlink="http://www.w3.org/1999/xlink" viewBox="0 0 16 16" shape-rendering="geometricPrecision" text-rendering="geometricPrecision" project-id="22d7c35254a94828a3c4923bc7ed2683" export-id="4d0793ab2b534a6ca20fb98458448da0" cached="false">
   <path d="M15.45,7L14,5.551L14,2c0-.55-.45-1-1-1h-1c-.55,0-1,.45-1,1v.553L9,0.555C8.727,0.297,8.477,0,8,0s-.727.297-1,.555L0.55,7C0.238,7.325,0,7.562,0,8c0,.563.432,1,1,1h1v6c0,.55.45,1,1,1h3v-5c0-.55.45-1,1-1h2c.55,0,1,.45,1,1v5h3c.55,0,1-.45,1-1v-6h1c.568,0,1-.437,1-1c0-.438-.238-.675-.55-1Z" fill="#1a74e2"/>
</svg>
