<svg id="eO3maGsjAyv1" xmlns="http://www.w3.org/2000/svg" xmlns:xlink="http://www.w3.org/1999/xlink" viewBox="0 0 480.543 480.543" shape-rendering="geometricPrecision" text-rendering="geometricPrecision" project-id="a40cad70bd3c43ed8381e8e8d16cd788" export-id="39830b02ad3c4465a341a25585b12df3" cached="false"><g><g><path d="M225.278,278.426c0-48.641-39.572-88.213-88.214-88.213-48.641,0-88.212,39.572-88.212,88.213c0,14.254,3.401,27.727,9.431,39.654l78.781,162.463l78.795-162.488c6.021-11.922,9.419-25.386,9.419-39.629Zm-88.214,48.817c-26.917,0-48.817-21.9-48.817-48.817s21.9-48.817,48.817-48.817c26.918,0,48.817,21.9,48.817,48.817s-21.899,48.817-48.817,48.817Z" fill="#1a74e2"/><path d="M387.021,0c-24.63,0-44.669,20.038-44.669,44.668c0,7.218,1.723,14.04,4.776,20.081l39.893,82.267l39.899-82.28c3.049-6.037,4.77-12.855,4.77-20.067C431.69,20.038,411.65,0,387.021,0Zm0,69.388c-13.631,0-24.72-11.089-24.72-24.72c0-13.63,11.089-24.72,24.72-24.72c13.629,0,24.719,11.09,24.719,24.72c0,13.631-11.09,24.72-24.719,24.72Z" fill="#1a74e2"/><path d="M348.116,289.787c-1.812-8.523-4.166-16.875-7.131-25.075-3.974-10.987-8.74-21.724-12.391-32.836-6.823-20.771,4.948-38.105,7.16-41.256c3.876-5.517,8.408-10.58,13.19-15.322c9.207-9.128,19.361-17.288,29.984-24.803-1.316-2.039-2.591-4.1-3.805-6.199-15.279,5.99-93.854,33.452-91.938,94.121.384,12.162,5.083,23.737,7.979,35.526c1.395,5.681,2.605,11.412,3.345,17.218.319,2.614.515,5.243.729,7.87.006-.02.004-.034-.008-.045.007.076.202,8.326-.164,11.9-1.147,11.189-2.799,22.494-7.516,32.758-4.387,9.543-11.006,17.842-19.193,24.402-18.716,14.994-43.514,20.988-66.913,23.398-1.114.117-2.228.217-3.342.314L156.323,477.91c20.614-1.281,41.175-4.102,61.235-9.039c23.607-5.811,46.613-14.588,67.227-27.598c20.596-12.996,38.308-30.578,50.099-51.984c12.335-22.391,17.277-48.038,16.225-73.452-.357-8.681-1.181-17.53-2.993-26.05Z" fill="#1a74e2"/></g></g></svg>
