<svg id="erZEA3xmke41" xmlns="http://www.w3.org/2000/svg" xmlns:xlink="http://www.w3.org/1999/xlink" viewBox="0 0 64 64" shape-rendering="geometricPrecision" text-rendering="geometricPrecision" project-id="8f9d4793498342d9b94ff8bb4ad076ee" export-id="7f5e94b9331c417f8bac2bb21d530478" cached="false"><g><path d="M32,0C18.745,0,8,10.745,8,24c0,5.678,2.502,10.671,5.271,15L30.368,63.156c.375.53.984.844,1.632.844s1.257-.314,1.632-.844L50.729,39C53.375,35.438,56,29.678,56,24C56,10.745,45.255,0,32,0Zm0,38c-7.732,0-14-6.268-14-14s6.268-14,14-14s14,6.268,14,14-6.268,14-14,14Z" fill="#1a74e2"/><path d="M32,12c-6.627,0-12,5.373-12,12s5.373,12,12,12s12-5.373,12-12-5.373-12-12-12Zm0,22c-5.523,0-10-4.478-10-10s4.477-10,10-10s10,4.478,10,10-4.477,10-10,10Z" fill="#1a74e2"/></g></svg>
